<svg id="Layer_3" data-name="Layer 3" xmlns="http://www.w3.org/2000/svg" xmlns:xlink="http://www.w3.org/1999/xlink" viewBox="0 0 48 48">
  <defs>
    <linearGradient id="linear-gradient" x1="3.913" y1="51.739" x2="44.087" y2="11.565" gradientTransform="translate(0 52) scale(1 -1)" gradientUnits="userSpaceOnUse">
      <stop offset="0" stop-color="#f7f8f9"/>
      <stop offset=".5" stop-color="#d6d5d4"/>
      <stop offset=".63" stop-color="#d2d0cf"/>
      <stop offset=".779" stop-color="#c4c1c1"/>
      <stop offset=".938" stop-color="#aca9a8"/>
      <stop offset=".99" stop-color="#a29f9d"/>
    </linearGradient>
    <linearGradient id="linear-gradient-2" x1="6.522" y1="50.174" x2="41.478" y2="15.217" gradientTransform="translate(0 52) scale(1 -1)" gradientUnits="userSpaceOnUse">
      <stop offset="0" stop-color="#d9ecf1"/>
      <stop offset=".221" stop-color="#d3e8ee"/>
      <stop offset=".542" stop-color="#c4dfe7"/>
      <stop offset=".921" stop-color="#a3ccdb"/>
      <stop offset="1" stop-color="#9cc8d7"/>
    </linearGradient>
    <linearGradient id="linear-gradient-3" x1="24" y1="7.652" x2="24" y2="14.957" gradientTransform="translate(0 52) scale(1 -1)" gradientUnits="userSpaceOnUse">
      <stop offset="0" stop-color="#bcb9b8"/>
      <stop offset=".26" stop-color="#b8b5b3"/>
      <stop offset=".567" stop-color="#a6a3a2"/>
      <stop offset=".897" stop-color="#908b89"/>
      <stop offset="1" stop-color="#868282"/>
    </linearGradient>
    <linearGradient id="linear-gradient-4" x1="40.1" y1="1.249" x2="64.28" y2="22.424" gradientTransform="translate(-19.615 8.319) scale(.838 .952)" gradientUnits="userSpaceOnUse">
      <stop offset="0" stop-color="#fff"/>
      <stop offset=".221" stop-color="#f7f8f8"/>
      <stop offset=".541" stop-color="#e5e5e5"/>
      <stop offset=".92" stop-color="#c7c6c5"/>
      <stop offset="1" stop-color="#bfbebe"/>
    </linearGradient>
    <linearGradient id="linear-gradient-5" x1="2.86" y1="5.735" x2="4.098" y2="6.973" gradientTransform="translate(36.601 24) rotate(-180) scale(1 -1)" gradientUnits="userSpaceOnUse">
      <stop offset="0" stop-color="#76b4c8"/>
      <stop offset=".177" stop-color="#6cadc2"/>
      <stop offset=".464" stop-color="#549eb4"/>
      <stop offset=".822" stop-color="#2f849d"/>
      <stop offset="1" stop-color="#197591"/>
    </linearGradient>
    <linearGradient id="linear-gradient-6" x1="1.522" y1="-9.65" x2="13.771" y2="2.67" gradientTransform="translate(36.601 24) rotate(-180) scale(1 -1)" gradientUnits="userSpaceOnUse">
      <stop offset="0" stop-color="#fff"/>
      <stop offset=".232" stop-color="#fafbfc"/>
      <stop offset=".496" stop-color="#ededee"/>
      <stop offset=".775" stop-color="#d7d6d6"/>
      <stop offset="1" stop-color="#bfbebe"/>
    </linearGradient>
  </defs>
  <g id="Monitor">
    <path id="rect53" d="M.522,3.652h46.957v33.391H.522V3.652Z" fill="url(#linear-gradient)" stroke-width="0"/>
    <g id="g59">
      <path id="rect55" d="M2.609,5.739h42.783v27.13H2.609V5.739Z" fill="url(#linear-gradient-2)" stroke-width="0"/>
      <path id="path57" d="M45.913,33.391H2.087V5.217h43.826v28.174ZM3.13,32.348h41.739V6.261H3.13v26.087Z" fill="#4f4b49" stroke-width="0"/>
    </g>
    <g id="g65">
      <path id="polygon61" d="M13.043,41.447l6.949-4.403h8.016l6.949,4.403v2.901H13.043v-2.901Z" fill="url(#linear-gradient-3)" stroke-width="0"/>
      <path id="path63" d="M48,3.13H0v34.435h18.194l-5.672,3.594v3.711h22.957v-3.711l-5.672-3.594h18.194V3.13ZM34.435,41.739v2.087H13.565v-2.087l6.579-4.174h7.722l6.569,4.174ZM46.957,36.522H1.043V4.174h45.913v32.348Z" fill="#4f4b49" stroke-width="0"/>
    </g>
    <path id="rect67" d="M17.739,40.696h12.522v1.043h-12.522v-1.043Z" fill="#777372" stroke-width="0"/>
  </g>
  <g opacity=".8">
    <rect id="rect858" x="12.977" y="8.445" width="22.046" height="22.046" rx=".159" ry=".159" fill="url(#linear-gradient-4)" stroke="#187491"/>
    <g>
      <path id="path868" d="M16.971,29.999V8.936h0" fill="none" opacity=".79" stroke="#474747" stroke-dasharray="0 0 .6 1" stroke-width=".6"/>
      <path id="path868-3" d="M21.778,29.999V8.936h0" fill="none" opacity=".79" stroke="#474747" stroke-dasharray="0 0 .6 1" stroke-width=".6"/>
      <path id="path868-3-6" d="M26.586,29.999V8.936h0" fill="none" opacity=".79" stroke="#474747" stroke-dasharray="0 0 .6 1" stroke-width=".6"/>
      <path id="path868-3-6-1" d="M31.348,29.999V8.936h0" fill="none" opacity=".79" stroke="#474747" stroke-dasharray="0 0 .6 1" stroke-width=".6"/>
      <path id="path868-2" d="M13.469,26.543h21.063" fill="none" opacity=".79" stroke="#474747" stroke-dasharray="0 0 .6 1" stroke-width=".6"/>
      <path id="path868-3-0" d="M13.469,21.69h21.063" fill="none" opacity=".79" stroke="#474747" stroke-dasharray="0 0 .6 1" stroke-width=".6"/>
      <path id="path868-3-6-7" d="M13.469,16.974h21.063" fill="none" opacity=".79" stroke="#474747" stroke-dasharray="0 0 .6 1" stroke-width=".6"/>
      <path id="path868-3-6-1-7" d="M13.469,12.121h21.063" fill="none" opacity=".79" stroke="#474747" stroke-dasharray="0 0 .6 1" stroke-width=".6"/>
    </g>
    <path id="polyline28" d="M16.282,24.237l5.658-5.914,2.747,1.832,5.945-5.324" fill="none" stroke="#187491"/>
    <circle id="circle30" cx="15.636" cy="25.022" r=".916" fill="#fff" stroke="#187491"/>
    <circle id="circle32" cx="21.939" cy="18.626" r=".916" fill="#fff" stroke="#187491"/>
    <circle id="circle34" cx="31.26" cy="14.318" r=".916" fill="#fff" stroke="#187491"/>
    <circle id="circle36" cx="24.687" cy="20.155" r=".916" fill="#fff" stroke="#187491"/>
    <path id="path4706" d="M16.037,17.396l6.1,5.192,5.355,1.001,3.865-3.911" fill="none" stroke="#187491"/>
    <circle id="circle32-3" cx="16.057" cy="17.396" r=".916" fill="#fff" stroke="#187491"/>
    <circle id="circle32-3-1" cx="22.137" cy="22.588" r=".916" fill="#fff" stroke="#187491"/>
    <circle id="circle32-3-1-7" cx="27.469" cy="23.612" r=".916" fill="#fff" stroke="#187491"/>
    <circle id="circle32-3-1-2" cx="31.381" cy="19.654" r=".916" fill="#fff" stroke="#187491"/>
  </g>
  <g>
    <g id="g959">
      <path id="_Compound_Path_" data-name=" Compound Path " d="M34.01,23.962l4.797,4.797c.391.391.391,1.024,0,1.415,0,0,0,0,0,0l-.086.086c-.391.391-1.024.391-1.415,0,0,0,0,0,0,0l-4.797-4.797" fill="url(#linear-gradient-5)" stroke="#474747" stroke-miterlimit="10" stroke-width=".825"/>
      <circle id="circle58" cx="29.005" cy="20.459" r="6.005" fill="url(#linear-gradient-6)" stroke="#474747" stroke-linecap="round" stroke-linejoin="round" stroke-width=".825"/>
    </g>
    <g opacity=".6">
      <rect x="25.523" y="22.225" width=".832" height=".833" fill="#474747" stroke-width="0"/>
      <rect x="25.523" y="20.004" width=".832" height=".833" fill="#474747" stroke-width="0"/>
      <rect x="32.133" y="22.225" width=".832" height=".833" fill="#474747" stroke-width="0"/>
      <g>
        <rect x="25.579" y="24.446" width=".832" height=".833" fill="#474747" stroke-width="0"/>
        <rect x="25.579" y="17.784" width=".832" height=".832" fill="#474747" stroke-width="0"/>
        <rect x="32.133" y="24.446" width=".832" height=".833" fill="#474747" stroke-width="0"/>
        <rect x="32.133" y="20.004" width=".832" height=".833" fill="#474747" stroke-width="0"/>
        <rect x="32.133" y="17.784" width=".832" height=".832" fill="#474747" stroke-width="0"/>
        <rect x="32.161" y="22.214" width=".833" height=".832" fill="#474747" stroke-width="0"/>
        <rect x="29.996" y="22.214" width=".833" height=".832" fill="#474747" stroke-width="0"/>
        <rect x="27.775" y="22.214" width=".833" height=".832" fill="#474747" stroke-width="0"/>
        <rect x="25.554" y="22.214" width=".833" height=".832" fill="#474747" stroke-width="0"/>
        <rect x="23.278" y="22.214" width=".832" height=".832" fill="#474747" stroke-width="0"/>
        <rect x="32.161" y="15.667" width=".833" height=".832" fill="#474747" stroke-width="0"/>
        <rect x="29.94" y="15.667" width=".833" height=".832" fill="#474747" stroke-width="0"/>
        <rect x="27.719" y="15.667" width=".833" height=".832" fill="#474747" stroke-width="0"/>
        <rect x="25.554" y="15.667" width=".833" height=".832" fill="#474747" stroke-width="0"/>
      </g>
    </g>
    <g>
      <path d="M24.337,18.729c-.029.126-.048.256-.048.391,0,.964.784,1.748,1.748,1.748s1.748-.784,1.748-1.748c0-.222-.046-.433-.122-.628l3.56-3.188c-.441-.193-.912-.327-1.403-.401l-2.984,2.672c-.241-.125-.51-.203-.8-.203-.379,0-.728.124-1.014.33l-.64-.427c-.232.341-.423.711-.575,1.1l.53.353ZM26.064,18.484c.357,0,.646.289.646.646s-.289.646-.646.646-.646-.289-.646-.646.289-.646.646-.646Z" fill="#187491" stroke-width="0"/>
      <path d="M34.373,19.002c-.039.009-.076.024-.118.024-.294,0-.533-.239-.533-.533,0-.208.122-.383.295-.471-.171-.36-.378-.698-.618-1.01-.505.307-.847.857-.847,1.49,0,.26.061.504.163.726l-2.535,2.566c-.217-.097-.456-.153-.709-.153-.619,0-1.16.325-1.47.811l-4.442-.83c.106.475.273.927.492,1.347l3.701.692c.132.834.849,1.476,1.72,1.476.964,0,1.748-.784,1.748-1.748,0-.26-.061-.504-.163-.726l2.536-2.566c.217.097.456.153.708.153.085,0,.167-.013.249-.025-.013-.421-.074-.83-.176-1.223ZM29.489,24.096c-.357,0-.646-.289-.646-.646s.289-.646.646-.646.646.289.646.646-.289.646-.646.646Z" fill="#187491" stroke-width="0"/>
    </g>
  </g>
</svg>